<svg xmlns="http://www.w3.org/2000/svg" width="311.779" height="42.906" viewBox="0 0 311.779 42.906">
  <defs>
    <style>
      .cls-1 {
        fill: #354c5e;
        fill-rule: evenodd;
      }
    </style>
  </defs>
  <path id="certification.svg" class="cls-1" d="M877.763,305.336l4.368-5.488a21.784,21.784,0,0,0-15.12-6.272c-11.7,0-20.72,8.568-20.72,19.768,0,11.312,8.9,19.992,20.44,19.992a22.359,22.359,0,0,0,15.456-6.72l-4.424-4.928a15.7,15.7,0,0,1-10.64,4.592,13.021,13.021,0,1,1,0-26.04A14.718,14.718,0,0,1,877.763,305.336Zm20.022-2.52c-8.96,0-15.232,6.16-15.232,15.288,0,9.016,6.1,15.176,15.4,15.176a16.63,16.63,0,0,0,12.6-5.152l-3.92-4.088a11.126,11.126,0,0,1-8.064,3.36A8.358,8.358,0,0,1,890,320.568h22.12C912.849,309.7,908.313,302.816,897.785,302.816Zm-7.952,12.88c0.672-4.424,3.7-7.224,8.008-7.224,4.536,0,7.5,2.8,7.672,7.224h-15.68Zm33.14-6.888V303.04h-7.28V333h7.28V318.552c0-5.432,3.864-9.128,10.192-8.736V302.76C928.517,302.816,924.989,304.888,922.973,308.808Zm30.241,16.856a10.18,10.18,0,0,1-4.256,1.232c-1.96,0-3.136-.952-3.136-3.808v-13.5h8.568v-5.32h-8.568V296.04H938.6v8.232h-4.256l0.056,5.32h4.2v14.784c0,6.16,3.92,8.96,8.792,8.96a14.426,14.426,0,0,0,7.5-2.184Zm7.952-35.224a4.034,4.034,0,1,0,3.92,4.032A3.824,3.824,0,0,0,961.166,290.44Zm-3.64,12.6V333h7.28V303.04h-7.28Zm36.368-4.536a4.034,4.034,0,1,0-3.92-4.032A3.824,3.824,0,0,0,993.894,298.5Zm-22.176,2.912v2.856H967.8v5.32h3.92V333H979V309.592h7.5v-5.32H979v-3.08c0-2.688,1.624-3.752,3.864-3.752a12.759,12.759,0,0,1,4.872,1.232l0.224-6.272a12.136,12.136,0,0,0-5.6-1.288C976.982,291.112,971.718,294.416,971.718,301.416ZM990.254,333h7.28V303.04h-7.28V333Zm34.126-20.5,4.43-4.2c-2.69-3.472-7.06-5.488-12.55-5.488-9.01,0-15.23,6.16-15.23,15.288,0,9.016,6.16,15.176,15.12,15.176,5.88,0,10.36-2.24,12.99-6.048l-4.53-3.752c-1.79,2.352-4.59,3.528-8.07,3.528-4.81,0-8.17-3.584-8.17-8.96,0-5.264,3.36-8.848,8.17-8.848A10.264,10.264,0,0,1,1024.38,312.5Zm33.91,20.5-0.05-19.6c-0.06-6.664-4.48-10.64-12.32-10.64-5.49,0-8.85,1.288-13.16,3.7l2.63,5.04a17.526,17.526,0,0,1,8.9-2.8c4.48,0,6.78,2.072,6.78,5.544v0.784h-8.74c-7.28.056-11.37,3.472-11.37,9.016,0,5.32,4.04,9.3,10.48,9.3,4.25,0,7.61-1.344,9.68-3.976V333h7.17Zm-15.12-5.264c-3.3,0-5.32-1.624-5.32-4.144,0-2.632,1.79-3.7,5.66-3.7h7.56v2.688C1050.68,325.5,1047.37,327.736,1043.17,327.736Zm35.89-2.072a10.149,10.149,0,0,1-4.25,1.232c-1.96,0-3.14-.952-3.14-3.808v-13.5h8.57v-5.32h-8.57V296.04h-7.22v8.232h-4.26l0.06,5.32h4.2v14.784c0,6.16,3.92,8.96,8.79,8.96a14.4,14.4,0,0,0,7.5-2.184Zm7.96-35.224a4.034,4.034,0,1,0,3.92,4.032A3.822,3.822,0,0,0,1087.02,290.44Zm-3.64,12.6V333h7.28V303.04h-7.28Zm26.32-.224c-9.47,0-15.85,6.1-15.85,15.176,0,9.128,6.38,15.288,15.85,15.288,9.35,0,15.73-6.16,15.73-15.288C1125.43,308.92,1119.05,302.816,1109.7,302.816Zm0,6.216c4.92,0,8.4,3.7,8.4,9.072s-3.48,9.072-8.4,9.072c-5.04,0-8.52-3.7-8.52-9.072S1104.66,309.032,1109.7,309.032Zm37.28-6.272c-4.87.056-8.62,1.9-10.75,5.88v-5.6h-7.28V333h7.28V318.272c0-4.928,2.91-8.568,7.84-8.624,4.14,0,6.66,2.576,6.66,6.776V333h7.34V314.3C1158.07,307.184,1153.87,302.76,1146.98,302.76Z" transform="translate(-846.281 -290.438)"/>
</svg>
