<svg xmlns="http://www.w3.org/2000/svg" width="143.62" height="39.531" viewBox="0 0 143.62 39.531">
  <defs>
    <style>
      .cls-1 {
        fill: #354c5e;
        fill-rule: evenodd;
      }
    </style>
  </defs>
  <path id="exam.svg" class="cls-1" d="M1180.43,293.8V333h29.4v-6.552h-21.9v-9.856h19.04V310.04h-19.04v-9.688h21.23V293.8h-28.73Zm31.51,9.24,9.74,14.616L1211.21,333h8.12l7.23-10.472L1233.22,333h8.4l-10.19-15.344,9.52-14.616h-8.01l-6.38,9.744-6.22-9.744h-8.4ZM1268.51,333l-0.06-19.6c-0.05-6.664-4.48-10.64-12.32-10.64-5.49,0-8.85,1.288-13.16,3.7l2.63,5.04a17.559,17.559,0,0,1,8.91-2.8c4.48,0,6.77,2.072,6.77,5.544v0.784h-8.73c-7.28.056-11.37,3.472-11.37,9.016,0,5.32,4.03,9.3,10.47,9.3,4.26,0,7.62-1.344,9.69-3.976V333h7.17Zm-15.12-5.264c-3.31,0-5.32-1.624-5.32-4.144,0-2.632,1.79-3.7,5.65-3.7h7.56v2.688C1260.89,325.5,1257.59,327.736,1253.39,327.736Zm59.74-24.976c-5.26.056-9.18,2.3-11.14,7.168-1.4-4.536-5.04-7.168-10.3-7.168-4.76.056-8.46,1.848-10.53,5.824V303.04h-7.28V333h7.28V318.216c0-4.872,2.85-8.456,7.61-8.624,4.04,0,6.5,2.576,6.5,6.832V333h7.34V318.216c0-4.872,2.85-8.456,7.56-8.624,4.03,0,6.55,2.576,6.55,6.832V333h7.33V314.3C1324.05,307.184,1319.91,302.76,1313.13,302.76Z" transform="translate(-1180.44 -293.813)"/>
</svg>
