<svg xmlns="http://www.w3.org/2000/svg" width="111.72" height="39.687" viewBox="0 0 111.72 39.687">
  <defs>
    <style>
      .cls-1 {
        fill: #354c5e;
        fill-rule: evenodd;
      }
    </style>
  </defs>
  <path id="fast.svg" class="cls-1" d="M1346.36,293.8V333h7.5V317.488h17.75v-6.552h-17.75V300.352h19.49l0.06-6.552h-27.05Zm53.89,39.2-0.06-19.6c-0.06-6.664-4.48-10.64-12.32-10.64-5.49,0-8.85,1.288-13.16,3.7l2.63,5.04a17.559,17.559,0,0,1,8.91-2.8c4.48,0,6.77,2.072,6.77,5.544v0.784h-8.73c-7.28.056-11.37,3.472-11.37,9.016,0,5.32,4.03,9.3,10.47,9.3,4.26,0,7.62-1.344,9.69-3.976V333h7.17Zm-15.12-5.264c-3.31,0-5.32-1.624-5.32-4.144,0-2.632,1.79-3.7,5.65-3.7h7.56v2.688C1392.63,325.5,1389.33,327.736,1385.13,327.736Zm38.69-16.576,2.63-5.264a20.17,20.17,0,0,0-10.97-3.192c-6.05,0-11.32,2.856-11.32,9.016-0.05,10.64,15.57,7.616,15.57,13.16,0,1.96-1.9,2.8-4.42,2.8a16.745,16.745,0,0,1-10.14-3.7l-2.52,5.1a19.249,19.249,0,0,0,12.38,4.2c6.38,0,11.81-2.968,11.81-9.072,0-10.752-15.84-8.12-15.84-13.16,0-1.848,1.68-2.632,4.03-2.632A18.376,18.376,0,0,1,1423.82,311.16Zm22.99,14.5a10.227,10.227,0,0,1-4.26,1.232c-1.96,0-3.14-.952-3.14-3.808v-13.5h8.57v-5.32h-8.57V296.04h-7.22v8.232h-4.26l0.06,5.32h4.2v14.784c0,6.16,3.92,8.96,8.79,8.96a14.463,14.463,0,0,0,7.51-2.184Zm3.92-31.472v9.744l1.23,16.3h4.53l1.24-16.3v-9.744h-7Zm3.47,31.248a3.751,3.751,0,0,0-3.81,3.976,3.843,3.843,0,1,0,7.67,0A3.762,3.762,0,0,0,1454.2,325.44Z" transform="translate(-1346.34 -293.813)"/>
</svg>
