<svg xmlns="http://www.w3.org/2000/svg" width="118.718" height="39.531" viewBox="0 0 118.718 39.531">
  <defs>
    <style>
      .cls-1 {
        fill: #354c5e;
        fill-rule: evenodd;
      }
    </style>
  </defs>
  <path id="next.svg" class="cls-1" d="M710.7,293.8V333h7.336V306.232L738.194,333h7.112V293.8h-7.28v26.824L717.81,293.8H710.7Zm53.9,9.016c-8.96,0-15.232,6.16-15.232,15.288,0,9.016,6.1,15.176,15.4,15.176a16.63,16.63,0,0,0,12.6-5.152l-3.92-4.088a11.126,11.126,0,0,1-8.064,3.36,8.358,8.358,0,0,1-8.568-6.832h22.12C779.662,309.7,775.126,302.816,764.6,302.816Zm-7.952,12.88c0.672-4.424,3.7-7.224,8.008-7.224,4.536,0,7.5,2.8,7.672,7.224h-15.68Zm21.98-12.656,9.744,14.616L777.9,333h8.12l7.224-10.472L799.906,333h8.4l-10.192-15.344,9.52-14.616h-8.008l-6.384,9.744-6.216-9.744h-8.4Zm49.113,22.624a10.18,10.18,0,0,1-4.256,1.232c-1.96,0-3.136-.952-3.136-3.808v-13.5h8.568v-5.32h-8.568V296.04h-7.224v8.232h-4.256l0.056,5.32h4.2v14.784c0,6.16,3.92,8.96,8.792,8.96a14.426,14.426,0,0,0,7.5-2.184Z" transform="translate(-710.688 -293.813)"/>
</svg>
