<svg xmlns="http://www.w3.org/2000/svg" width="111.063" height="39.531" viewBox="0 0 111.063 39.531">
  <defs>
    <style>
      .cls-1 {
        fill: #354c5e;
        fill-rule: evenodd;
      }
    </style>
  </defs>
  <path id="pass.svg" class="cls-1" d="M461.578,293.8H445.506V333h7.5V321.464h8.568c9.856,0,15.512-5.208,15.512-14.168C477.09,298.672,471.434,293.8,461.578,293.8Zm-0.392,21.056H453.01v-14.5h8.176c5.6,0,8.792,2.352,8.792,7.168C469.978,312.448,466.786,314.856,461.186,314.856ZM505.082,333l-0.056-19.6c-0.056-6.664-4.48-10.64-12.32-10.64-5.488,0-8.848,1.288-13.16,3.7l2.632,5.04a17.539,17.539,0,0,1,8.9-2.8c4.48,0,6.776,2.072,6.776,5.544v0.784h-8.736c-7.28.056-11.368,3.472-11.368,9.016,0,5.32,4.032,9.3,10.472,9.3,4.256,0,7.616-1.344,9.688-3.976V333h7.168Zm-15.12-5.264c-3.3,0-5.32-1.624-5.32-4.144,0-2.632,1.792-3.7,5.656-3.7h7.56v2.688C497.466,325.5,494.162,327.736,489.962,327.736Zm38.7-16.576,2.632-5.264a20.185,20.185,0,0,0-10.976-3.192c-6.048,0-11.312,2.856-11.312,9.016-0.056,10.64,15.568,7.616,15.568,13.16,0,1.96-1.9,2.8-4.424,2.8a16.725,16.725,0,0,1-10.136-3.7l-2.52,5.1a19.237,19.237,0,0,0,12.376,4.2c6.384,0,11.816-2.968,11.816-9.072,0-10.752-15.848-8.12-15.848-13.16,0-1.848,1.68-2.632,4.032-2.632A18.37,18.37,0,0,1,528.658,311.16Zm24.866,0,2.632-5.264A20.185,20.185,0,0,0,545.18,302.7c-6.048,0-11.312,2.856-11.312,9.016-0.056,10.64,15.568,7.616,15.568,13.16,0,1.96-1.9,2.8-4.424,2.8a16.725,16.725,0,0,1-10.136-3.7l-2.52,5.1a19.237,19.237,0,0,0,12.376,4.2c6.384,0,11.816-2.968,11.816-9.072,0-10.752-15.848-8.12-15.848-13.16,0-1.848,1.68-2.632,4.032-2.632A18.37,18.37,0,0,1,553.524,311.16Z" transform="translate(-445.5 -293.813)"/>
</svg>
