<svg xmlns="http://www.w3.org/2000/svg" width="118.313" height="39.468" viewBox="0 0 118.313 39.468">
  <defs>
    <style>
      .cls-1 {
        fill: #354c5e;
        fill-rule: evenodd;
      }
    </style>
  </defs>
  <path id="your.svg" class="cls-1" d="M608.78,293.8h-7.56l-10.528,18.424L580,293.8H572.38L587,320.456V333h7.5V320.176Zm10.929,9.016c-9.464,0-15.848,6.1-15.848,15.176,0,9.128,6.384,15.288,15.848,15.288,9.352,0,15.736-6.16,15.736-15.288C635.445,308.92,629.061,302.816,619.709,302.816Zm0,6.216c4.928,0,8.4,3.7,8.4,9.072s-3.472,9.072-8.4,9.072c-5.04,0-8.512-3.7-8.512-9.072S614.669,309.032,619.709,309.032Zm39.984-5.992v14.784c0,4.816-2.8,8.512-7.5,8.568-4.032,0-6.44-2.52-6.44-6.72V303.04h-7.336V321.8c0,7.056,4.144,11.48,10.864,11.48,4.76,0,8.344-1.848,10.416-5.824V333h7.336V303.04h-7.336Zm20.805,5.768V303.04h-7.28V333h7.28V318.552c0-5.432,3.864-9.128,10.192-8.736V302.76C686.042,302.816,682.514,304.888,680.5,308.808Z" transform="translate(-572.375 -293.813)"/>
</svg>
