<svg id="deffb6e1-b436-48ef-851e-22b3cb7c83be" data-name="Visa.svg" xmlns="http://www.w3.org/2000/svg" xmlns:xlink="http://www.w3.org/1999/xlink" viewBox="0 0 542.5 81.65"><defs><style>.beda7151-e89a-4c81-a34a-b541bd62fe8b{stroke:#eee;stroke-miterlimit:10;fill:url(#2e43f68b-7ad4-4d4c-b632-c2673789be5b);}.\38 a7b7e08-0d92-4eaa-8fc4-55d5c6f8a9d0{fill:#1a1f71;}.\39 b7fcd0b-7592-48a7-b139-e6736ac04eb4{fill:#f2ae14;}.\35 cc419bc-f13b-4cbf-8c46-b8ad92fec3f6{fill:url(#d9cbcec9-f000-46f2-bc7f-116de09af87c);}.da1ac076-3dab-4e62-94cf-18dfb6b4c8ee{fill:#ed1b2e;}.f8d2d61a-246d-4c73-80fb-4ca8941a0d5e{fill:#009ddc;}.\39 a6f800a-347a-480a-8466-0f0954c7bd66{fill:#fff;}.f23991a5-341b-4a21-9259-9dce714d3b17{fill:url(#299c1ae2-1217-434b-b827-0a38e05d994a);}.\30 5b598e5-e13e-480a-af33-52d31afc0280{fill:#fcb835;}.e05db6a2-959a-4d94-9871-72580734d01d{fill:#f03727;}.fb853108-9962-44a4-94df-7058a103b738{fill:url(#a7aa63a6-0d16-42ad-8b74-c46acf2b43fc);}</style><linearGradient id="2e43f68b-7ad4-4d4c-b632-c2673789be5b" x1="225.3" y1="380.95" x2="225.3" y2="300.95" gradientUnits="userSpaceOnUse"><stop offset="0" stop-color="#eee"/><stop offset="1" stop-color="#fdfdfd"/></linearGradient><linearGradient id="d9cbcec9-f000-46f2-bc7f-116de09af87c" x1="501.3" y1="382.1" x2="501.3" y2="302.1" gradientUnits="userSpaceOnUse"><stop offset="0" stop-color="#1f2767"/><stop offset="1" stop-color="#214981"/></linearGradient><linearGradient id="299c1ae2-1217-434b-b827-0a38e05d994a" x1="363.3" y1="380.52" x2="363.3" y2="300.52" xlink:href="#d9cbcec9-f000-46f2-bc7f-116de09af87c"/><linearGradient id="a7aa63a6-0d16-42ad-8b74-c46acf2b43fc" x1="639.3" y1="380.95" x2="639.3" y2="300.95" gradientUnits="userSpaceOnUse"><stop offset="0" stop-color="#22609a"/><stop offset="1" stop-color="#3681b1"/></linearGradient></defs><title>cards</title><path id="fde17ee4-7f10-45c3-9de9-4b14be17a090" data-name="Rounded Rectangle 1 copy 8" class="beda7151-e89a-4c81-a34a-b541bd62fe8b" d="M167.3,301h116a6,6,0,0,1,6,6v68a6,6,0,0,1-6,6h-116a6,6,0,0,1-6-6V307A6,6,0,0,1,167.3,301Z" transform="translate(-160.8 -300.45)"/><path class="8a7b7e08-0d92-4eaa-8fc4-55d5c6f8a9d0" d="M206.7,326.55l-6.8,19.1-0.8-3.9a22.19,22.19,0,0,0-9.6-11.7l6.2,24.5h7.4l11-28h-7.4Zm5.8,28,4.4-28.1h7l-4.4,28.1h-7Zm32.3-27.4a16.68,16.68,0,0,0-6.2-1.2c-6.9,0-11.7,3.8-11.8,9.3,0,4,3.5,6.3,6.1,7.6s3.6,2.3,3.6,3.5c0,1.9-2.2,2.7-4.2,2.7a12.23,12.23,0,0,1-6.5-1.5l-0.9-.4-1,6.3a20.81,20.81,0,0,0,7.8,1.5c7.3,0,12.1-3.8,12.1-9.6,0-3.2-1.8-5.6-5.9-7.6-2.4-1.3-3.9-2.2-3.9-3.5s1.3-2.4,4-2.4a11.58,11.58,0,0,1,5.2,1.1l0.6,0.3,1-6.1h0Zm17.8-.6h-5.4a3.58,3.58,0,0,0-3.7,2.3l-10.3,25.7h7.3s1.2-3.5,1.5-4.2h8.9c0.2,1,.9,4.2.9,4.2h6.5l-5.7-28h0Zm-8.6,18c0.6-1.6,2.8-7.8,2.8-7.8a25.47,25.47,0,0,0,.9-2.7l0.5,2.4s1.3,6.7,1.6,8.1H254Z" transform="translate(-160.8 -300.45)"/><path id="5bef7f71-f249-45ee-b0f3-09d1282856de" data-name="Shape 12 copy" class="9b7fcd0b-7592-48a7-b139-e6736ac04eb4" d="M193.6,326.05H182.3l-0.1.5c8.7,2.3,14.5,8,16.9,14.8l-2.4-12.9A2.83,2.83,0,0,0,193.6,326.05Z" transform="translate(-160.8 -300.45)"/><path id="da00a8bd-9258-4810-b1e7-4d96f5139198" data-name="Rounded Rectangle 1 copy" class="5cc419bc-f13b-4cbf-8c46-b8ad92fec3f6" d="M443.3,302.1h116a6,6,0,0,1,6,6v68a6,6,0,0,1-6,6h-116a6,6,0,0,1-6-6v-68A6,6,0,0,1,443.3,302.1Z" transform="translate(-160.8 -300.45)"/><path id="e29ab656-cc7a-437c-b9f0-b9c9cae110f3" data-name="Shape 3 copy" class="da1ac076-3dab-4e62-94cf-18dfb6b4c8ee" d="M548.3,341.1a24,24,0,1,1-24-24,23.94,23.94,0,0,1,24,24h0Z" transform="translate(-160.8 -300.45)"/><path class="f8d2d61a-246d-4c73-80fb-4ca8941a0d5e" d="M515.3,341.1a24,24,0,1,1-24-24,23.94,23.94,0,0,1,24,24h0Z" transform="translate(-160.8 -300.45)"/><path class="9a6f800a-347a-480a-8466-0f0954c7bd66" d="M495.7,336.1a11.93,11.93,0,0,0-3.7.6l-0.4,2.4,0.3-.1,0.4-.1a10.68,10.68,0,0,1,2.5-.3c1.4,0,2,.3,2,1a1.7,1.7,0,0,1-.1.7c-0.4,0-.8-0.1-1.2-0.1-3.4,0-5.4,1.5-5.4,4.1a2.7,2.7,0,0,0,2.5,2.9h0.3a3.89,3.89,0,0,0,3.2-1.3L496,347h2.6v-0.7l0.1-.5,0.1-.7,0.7-3.7h0a14.92,14.92,0,0,0,.2-2.1C499.7,337.2,498.3,336.1,495.7,336.1Zm-1.6,8.7a1,1,0,0,1-1.1-.9v-0.2h0c0-1.1.9-1.6,2.6-1.6h0.7C496.3,343.7,495.4,344.8,494.1,344.8Zm-8.6,2.1,1.8-9.9-4.2,9.9h-2.8l-0.5-9.9-1.8,9.9h-2.8l2.4-12.9h4.8l0.2,8,3.4-8h5l-2.4,12.9h-3.1Zm32.1-8.1c-0.7-.1-1.5-0.1-2.2-0.2q-1.5,0-1.5.9c0,0.5.1,0.6,1.4,1.1a2.83,2.83,0,0,1,2.2,2.9c0,2.4-1.5,3.5-4.8,3.5a12.28,12.28,0,0,1-1.7-.1,2,2,0,0,1-.8-0.1l-0.5-.1h-0.1l0.4-2.4a8.63,8.63,0,0,0,2.8.4q1.8,0,1.8-.9c0-.5-0.2-0.6-1.4-1.2-1.6-.7-2.4-1.6-2.4-2.9,0-1.9,1.2-3.6,4.6-3.6a24.52,24.52,0,0,1,2.7.2Zm4.8,5.7a2.2,2.2,0,0,0,.8-0.1l-0.4,2.3a7.8,7.8,0,0,1-2.2.3,2.07,2.07,0,0,1-2.4-1.8v-0.5a2.77,2.77,0,0,1,.1-0.9l0.2-1,0.1-.8,1.4-8h3l-0.4,2.4h1.6l-0.4,2.6h-1.6l-0.8,4.4v0.4c-0.1.5,0.2,0.7,1,.7h0Zm7.5-5.2c-1.5,0-1.9,1.1-3,7.5h-3.1l1.9-10.5h2.8l-0.3,1.6c1-1.2,1.7-1.7,2.7-1.7h0.3a0.77,0.77,0,0,1,.3.1c0.1,0,.2.1,0.3,0.1l-1.1,3-0.4-.1h-0.4Zm6.5-3.2c-3.7,0-6,2.5-6,6.2,0,2.7,1.4,4.8,4.9,4.8,3.1,0,5.5-1.6,6-5a5.7,5.7,0,0,0,.1-1.3,4.41,4.41,0,0,0-4.2-4.7,1.1,1.1,0,0,0-.8,0h0Zm1.5,5.9a3.11,3.11,0,0,1-2.3,2.6c-1.1,0-1.8-.9-1.8-2.4,0-1.7,1-3.6,2.5-3.6h0c1.2,0,1.7,1,1.7,2.1a5.29,5.29,0,0,1-.1,1.3h0Zm-28.6.5a10.87,10.87,0,0,0,.4-2.6c0-2.3-1.6-3.8-4.1-3.8-3.1,0-5.3,2.7-5.3,6.3,0,3.1,1.8,4.7,5.2,4.7a11,11,0,0,0,3.1-.4l0.5-2.6a8.76,8.76,0,0,1-3.2.7h0q-2.7,0-2.7-1.8v-0.3l6.1-.2h0Zm-3.8-4a1.24,1.24,0,0,1,1.4,1.1v0.8h-3.4a2.23,2.23,0,0,1,2-1.9h0Z" transform="translate(-160.8 -300.45)"/><path id="b4812edc-0bbb-454a-bd71-da15f02bf04d" data-name="Rounded Rectangle 1 copy" class="f23991a5-341b-4a21-9259-9dce714d3b17" d="M305.3,301.1h116a6,6,0,0,1,6,6v68a6,6,0,0,1-6,6h-116a6,6,0,0,1-6-6v-68A6,6,0,0,1,305.3,301.1Z" transform="translate(-160.8 -300.45)"/><path id="dccdd0ab-2b16-4252-99ce-820542765491" data-name="Shape 3 copy" class="05b598e5-e13e-480a-af33-52d31afc0280" d="M403.3,341.1a24,24,0,1,1-24-24,23.94,23.94,0,0,1,24,24h0Z" transform="translate(-160.8 -300.45)"/><path class="e05db6a2-959a-4d94-9871-72580734d01d" d="M370.3,341.1a24,24,0,1,1-24-24,23.94,23.94,0,0,1,24,24h0Z" transform="translate(-160.8 -300.45)"/><path class="9a6f800a-347a-480a-8466-0f0954c7bd66" d="M352.2,337.5l-0.4,1.6h-2.1a1.59,1.59,0,0,0-1,.5c0,0.3.8,0.7,1.9,1.1a1.73,1.73,0,0,1,1.1,2.1c-0.1.7-.3,2.2-3.6,2.2a13.68,13.68,0,0,1-2.9-.2l0.4-1.7s2.4,0.5,3,.2,1.2-.8.2-1.1-2.7-.9-2.7-2.2a2.28,2.28,0,0,1,1.8-2.4,10.35,10.35,0,0,1,4.3-.1h0ZM336,344.9h-2.4l1.4-6.3-2.9,6.3h-1.6l-0.4-6.5-1.4,6.5h-2.3l2.1-9.6h2.7l1,5.5,3.2-5.5h2.8l-2.2,9.6h0Zm18.3,0.1a3.29,3.29,0,0,1-1.7-.4,1.66,1.66,0,0,1-.5-1.2V343a4.33,4.33,0,0,0,.1-0.5l1.4-6.1h2.2l-0.3,1.2h2.1l-0.4,1.5h-2.1l-0.6,2.6c0,0.2-.1.3-0.1,0.5s-0.1.3-.1,0.5a0.48,0.48,0,0,0,.2.5,1.42,1.42,0,0,0,.6.2,0.6,0.6,0,0,0,.4-0.1,1.06,1.06,0,0,0,.5-0.2h0.2l-0.4,1.5c-0.3.1-.5,0.1-0.8,0.2,0,0.2-.4.2-0.7,0.2h0Zm16.1-5.3a1.4,1.4,0,0,0-1.8.4l-1.1,4.8h-2.2l1.6-7.2h2.2v0.6a2.74,2.74,0,0,1,2.1-.6,5,5,0,0,0-.8,2h0Zm4.2,5.4a4,4,0,0,1-2.9-1,3.48,3.48,0,0,1-1-2.8,7.83,7.83,0,0,1,.4-2.6,8.17,8.17,0,0,1,1.2-2,5.83,5.83,0,0,1,4.1-1.7,11,11,0,0,1,1.8.2c0.3,0.1.8,0.3,0.8,0.3l-0.5,2.3a5.55,5.55,0,0,0-.8-0.6,3.19,3.19,0,0,0-1.4-.3,2.68,2.68,0,0,0-2.3,1.2,4.36,4.36,0,0,0-.9,2.9,2.16,2.16,0,0,0,.5,1.7,1.87,1.87,0,0,0,1.4.5,4.15,4.15,0,0,0,1.6-.3,2.51,2.51,0,0,0,.7-0.4l-0.5,2.2a2.27,2.27,0,0,1-.4.1,3.09,3.09,0,0,1-.8.2,3.4,3.4,0,0,1-1,.1h0Zm-33.1-.5a0.37,0.37,0,0,1-.3.1,1.42,1.42,0,0,1-.6.2,2.77,2.77,0,0,1-.9.1,2.39,2.39,0,0,1-1.4-.5,1.61,1.61,0,0,1-.6-1.3,2.37,2.37,0,0,1,1.6-2.4,8.45,8.45,0,0,1,1.7-.5l0.5-.1c0.6-.1,1.1-0.1,1.7-0.2v-0.3a0.75,0.75,0,0,0-.4-0.7,5,5,0,0,0-1.2-.2h-0.1a4.25,4.25,0,0,0-1.1.2,6.21,6.21,0,0,0-1,.3h-0.2l0.3-1.7a5,5,0,0,1,1.2-.2,2.2,2.2,0,0,1,.8-0.1h0.9a6.72,6.72,0,0,1,2.4.4,1.6,1.6,0,0,1,.8,1.4v0.3a0.76,0.76,0,0,1-.1.4l-1.1,4.9h-2.2l0.2-.8a2.19,2.19,0,0,1-.5.3,1.2,1.2,0,0,1-.4.4h0Zm0-3a1.42,1.42,0,0,0-.6.2,2.09,2.09,0,0,0-.6.4,1.45,1.45,0,0,0-.2.7,0.55,0.55,0,0,0,.3.5,1.88,1.88,0,0,0,.8.2,0.76,0.76,0,0,0,.4-0.1,2.27,2.27,0,0,1,.4-0.1,2.51,2.51,0,0,0,.7-0.4l0.3-1.5c-0.4,0-.8.1-1.1,0.1h-0.4Zm19.3-2.7a1.91,1.91,0,0,0-.8.3,2.59,2.59,0,0,0-.7,1.1h3v-0.4a1.14,1.14,0,0,0-.3-0.8,1.4,1.4,0,0,0-.9-0.3,0.37,0.37,0,0,1-.3.1h0Zm0,4.5h0.3a3.53,3.53,0,0,0,1.4-.3,3.88,3.88,0,0,0,1.1-.6h0.3l-0.4,1.9a5.73,5.73,0,0,1-1.4.4c-0.4.1-.9,0.1-1.3,0.2h-0.2a4,4,0,0,1-2.8-.8,2.9,2.9,0,0,1-1-2.3,5.66,5.66,0,0,1,.3-1.8,6,6,0,0,1,.9-1.5,7.1,7.1,0,0,1,1.4-1,2.77,2.77,0,0,1,1.3-.3h0.6a3.17,3.17,0,0,1,2.3.7,2.73,2.73,0,0,1,.8,1.9,2.77,2.77,0,0,1-.1.9c-0.1.3-.1,0.6-0.2,0.8h-5.2v0.2a1.85,1.85,0,0,0,.5,1.2,2.73,2.73,0,0,0,1.4.4h0Zm21,1.2a0.37,0.37,0,0,1-.3.1,1.42,1.42,0,0,1-.6.2,2.49,2.49,0,0,1-.8.1,2.39,2.39,0,0,1-1.4-.5,1.3,1.3,0,0,1-.5-1.3,2.82,2.82,0,0,1,.4-1.5,3.13,3.13,0,0,1,1.1-.9,8.45,8.45,0,0,1,1.7-.5,1.09,1.09,0,0,0,.5-0.1c0.6-.1,1.1-0.1,1.7-0.2v-0.3a1,1,0,0,0-.4-0.7,5,5,0,0,0-1.2-.2h-0.2a4.25,4.25,0,0,0-1.1.2,6.21,6.21,0,0,0-1,.3h-0.2l0.3-1.7a5,5,0,0,1,1.2-.2,2.2,2.2,0,0,1,.8-0.1h0.9a4.88,4.88,0,0,1,2.4.4,1.6,1.6,0,0,1,.8,1.4v0.3a0.76,0.76,0,0,1-.1.4l-1.1,4.9h-2.2l0.2-.8c-0.2.1-.3,0.2-0.5,0.3l-0.4.4h0Zm0-3a1.42,1.42,0,0,0-.6.2,2.09,2.09,0,0,0-.6.4,1.45,1.45,0,0,0-.2.7,0.55,0.55,0,0,0,.3.5,1.88,1.88,0,0,0,.8.2,0.76,0.76,0,0,0,.4-0.1c0.1,0,.2-0.1.3-0.1a2.51,2.51,0,0,0,.7-0.4l0.4-1.5c-0.4,0-.8.1-1.1,0.1h-0.4Zm9.4-1.9a1.4,1.4,0,0,0-1.8.4l-1.1,4.8h-2.2l1.6-7.2h2.2v0.6a2.74,2.74,0,0,1,2.1-.6,5,5,0,0,0-.8,2h0Zm4.4-.5a0.53,0.53,0,0,0-.3.2,2.34,2.34,0,0,0-.7.7,3,3,0,0,0-.4,1,5.16,5.16,0,0,0-.2,1.1,1.06,1.06,0,0,0,1.2,1.2,0.48,0.48,0,0,0,.4-0.1,0.2,0.2,0,0,0,.2-0.1l0.6-.3,0.8-3.6c-0.2-.1-0.3-0.1-0.5-0.2s-0.3-.1-0.5-0.1-0.4.1-.6,0.2h0Zm0,5.3-0.6.3a2.57,2.57,0,0,0-.5.2c-0.2,0-.4.1-0.6,0.1a2,2,0,0,1-1.6-.7,3.29,3.29,0,0,1-.6-1.9,5.82,5.82,0,0,1,.3-1.9,5.07,5.07,0,0,1,.9-1.6,6.88,6.88,0,0,1,1.3-1.1,4.19,4.19,0,0,1,1.5-.4h0.1a3.4,3.4,0,0,1,1,.1,3.55,3.55,0,0,1,.9.4l0.5-2.5h2.2l-2,9.5h-2.2l0.2-.8a2.19,2.19,0,0,0-.8.3h0Z" transform="translate(-160.8 -300.45)"/><path id="ab6c873a-5d7f-419d-95e1-e6d6ac014f2c" data-name="Rounded Rectangle 1" class="fb853108-9962-44a4-94df-7058a103b738" d="M581.3,301h116a6,6,0,0,1,6,6v68a6,6,0,0,1-6,6h-116a6,6,0,0,1-6-6V307A6,6,0,0,1,581.3,301Z" transform="translate(-160.8 -300.45)"/><path class="9a6f800a-347a-480a-8466-0f0954c7bd66" d="M586.84,329l-2.46-6-2.45,6m59.16-2.39a3.34,3.34,0,0,1-1.78.31h-4.37v-3.34h4.43a3.69,3.69,0,0,1,1.71.27,1.38,1.38,0,0,1,.76,1.33A1.54,1.54,0,0,1,641.09,326.65ZM672.26,329l-2.49-6-2.48,6h5Zm-58.12,6.49h-3.69V323.74l-5.22,11.79h-3.16l-5.23-11.8v11.8h-7.32l-1.38-3.36h-7.49l-1.4,3.36h-3.91l6.44-15.05h5.35l6.12,14.25V320.48h5.87l4.71,10.21,4.33-10.21h6v15.05h0Zm14.7,0h-12V320.48h12v3.13h-8.42v2.71h8.22v3.09h-8.22v3h8.42v3.11Zm16.95-11a4.24,4.24,0,0,1-2.54,4,4.17,4.17,0,0,1,1.78,1.27,4.33,4.33,0,0,1,.6,2.76v3H642v-1.9c0-.91.09-2.21-0.57-2.93-0.53-.53-1.33-0.64-2.62-0.64h-3.86v5.47h-3.6V320.48h8.27a8.47,8.47,0,0,1,4.36.72A3.51,3.51,0,0,1,645.79,324.53Zm5.76,11h-3.67V320.48h3.67v15.05Zm42.59,0H689l-6.82-11.3v11.3h-7.33l-1.4-3.36H666l-1.36,3.36h-4.21c-1.75,0-4-.39-5.22-1.66s-1.92-3-1.92-5.75a8,8,0,0,1,1.94-5.89c1.16-1.2,3-1.76,5.46-1.76h3.48v3.23h-3.41a3.46,3.46,0,0,0-2.77.89,5,5,0,0,0-1,3.41,5.22,5.22,0,0,0,1,3.53,3.47,3.47,0,0,0,2.51.78h1.62l5.07-11.84h5.39l6.09,14.24V320.48h5.48L690.45,331V320.48h3.69v15.05h0Zm-118.83,3h6.15l1.39-3.34h3.1l1.38,3.34h12.09v-2.56l1.08,2.57h6.28l1.08-2.6v2.59h30.06V333h0.58c0.41,0,.53.05,0.53,0.72v4.76h15.55v-1.28a12.32,12.32,0,0,0,5.77,1.28h6.54l1.4-3.34h3.1l1.37,3.34h12.6v-3.18l1.91,3.18h10.1v-21h-10V320l-1.4-2.48H675.69V320l-1.29-2.48H660.55a12.44,12.44,0,0,0-6,1.23V317.5H645v1.23a5.93,5.93,0,0,0-4.06-1.23H606l-2.34,5.42-2.41-5.42h-11V320L589,317.5h-9.38l-4.36,10v11h0Z" transform="translate(-160.8 -300.45)"/><path class="9a6f800a-347a-480a-8466-0f0954c7bd66" d="M703.3,349.59h-6.56a2.49,2.49,0,0,0-1.46.27,1.17,1.17,0,0,0-.53,1.08,1.14,1.14,0,0,0,.79,1.12,4.1,4.1,0,0,0,1.39.17l1.95,0.05c2,0,3.28.39,4.08,1.21a1.94,1.94,0,0,1,.33.37m0,5.64c-0.87,1.28-2.58,1.93-4.88,1.93h-6.95v-3.23h6.92a2,2,0,0,0,1.46-.37,1.32,1.32,0,0,0,.43-1,1.24,1.24,0,0,0-.44-1,1.83,1.83,0,0,0-1.27-.33c-3.38-.11-7.59.1-7.59-4.66,0-2.18,1.39-4.48,5.16-4.48h7.17v-3h-6.66a7.5,7.5,0,0,0-4.5,1.23v-1.23h-9.85a6.82,6.82,0,0,0-4.3,1.23v-1.23H660.41v1.23a9.36,9.36,0,0,0-4.85-1.23H644v1.23c-1.11-1.07-3.57-1.23-5.07-1.23h-13l-3,3.22-2.78-3.22H600.75v21h19l3.06-3.27,2.88,3.27h11.73v-4.94h1.15a12.22,12.22,0,0,0,5-.74v5.67h9.67v-5.48h0.47c0.6,0,.65,0,0.65.62v4.85h29.39a8.38,8.38,0,0,0,4.9-1.34v1.34H698a12.49,12.49,0,0,0,5.28-1v-3.91h0Zm-14.35-6a4.19,4.19,0,0,1,1.08,3.19c0,3.24-2,4.75-5.65,4.75h-7v-3.23h7a2.11,2.11,0,0,0,1.47-.37,1.34,1.34,0,0,0,.42-1,1.29,1.29,0,0,0-.44-1,1.89,1.89,0,0,0-1.28-.33c-3.36-.11-7.58.1-7.58-4.66,0-2.18,1.37-4.48,5.14-4.48h7.21v3.2h-6.6a2.43,2.43,0,0,0-1.44.27,1.26,1.26,0,0,0,.25,2.2,4.14,4.14,0,0,0,1.4.17l1.94,0.05C686.79,352.34,688.13,352.68,688.95,353.5Zm-32.46-.93a3.44,3.44,0,0,1-1.78.31h-4.37V349.5h4.43a3.54,3.54,0,0,1,1.72.27,1.43,1.43,0,0,1,.74,1.35A1.62,1.62,0,0,1,656.49,352.57Zm2.17,1.87a3.91,3.91,0,0,1,1.76,1.26,4.38,4.38,0,0,1,.6,2.75v3H657.4v-1.88c0-.91.09-2.25-0.58-2.95-0.53-.54-1.33-0.67-2.64-0.67h-3.84v5.5h-3.62V346.39H655a8.91,8.91,0,0,1,4.33.71,3.53,3.53,0,0,1,1.85,3.34A4.22,4.22,0,0,1,658.66,354.45Zm4.54-8.06h12v3.11h-8.42v2.74H675v3.07h-8.22v3h8.42v3.12h-12V346.39Zm-24.27,6.95h-4.65V349.5H639c1.3,0,2.2.53,2.2,1.85S640.31,353.34,638.93,353.34Zm-8.23,6.74-5.52-6.13L630.7,348v12.07Zm-14.26-1.77h-8.85v-3h7.9v-3.07h-7.9V349.5h9l3.94,4.39Zm28.6-7c0,4.18-3.12,5-6.27,5h-4.49v5h-7l-4.43-5-4.6,5H604V346.39h14.47l4.43,4.93,4.58-4.93H639C641.83,346.39,645,347.18,645,351.35Z" transform="translate(-160.8 -300.45)"/></svg>