<svg id="icon2.svg" xmlns="http://www.w3.org/2000/svg" width="164.97" height="156.969" viewBox="0 0 164.97 156.969">
  <defs>
    <style>
      .cls-1 {
        fill: #fff;
      }

      .cls-1, .cls-2 {
        fill-rule: evenodd;
      }

      .cls-2 {
        fill: #1a70c5;
      }
    </style>
  </defs>
  <path class="cls-1" d="M1025.73,575.352a18.248,18.248,0,0,0,18.24-18.251V468.28a18.247,18.247,0,0,0-18.24-18.25H897.252a18.244,18.244,0,0,0-18.238,18.25V557.1a18.244,18.244,0,0,0,18.238,18.251h48.433v27.579h-23.3a2.028,2.028,0,0,0,0,4.055H1000.6a2.028,2.028,0,1,0,0-4.055H977.3V575.352h48.432ZM883.067,468.28a14.191,14.191,0,0,1,14.185-14.195H1025.73a14.191,14.191,0,0,1,14.19,14.195v72.6H883.067v-72.6Zm90.178,134.651H949.738V575.352h23.507v27.579ZM897.252,571.3a14.19,14.19,0,0,1-14.185-14.2V544.934H1039.92V557.1a14.19,14.19,0,0,1-14.19,14.2H897.252Z" transform="translate(-879 -450.031)"/>
  <path class="cls-2" d="M945.464,502.592L960.3,520.421a1.563,1.563,0,0,0,2.409,0l14.84-17.829a1.721,1.721,0,0,0-1.2-2.908h-6.227V472.72a1.72,1.72,0,0,0-1.7-1.7H954.6a1.72,1.72,0,0,0-1.705,1.7v26.964h-6.226A1.72,1.72,0,0,0,945.464,502.592ZM947.5,524h28a2.5,2.5,0,0,1,0,5h-28A2.5,2.5,0,0,1,947.5,524Z" transform="translate(-879 -450.031)"/>
</svg>
