<svg id="icon1.svg" xmlns="http://www.w3.org/2000/svg" width="114" height="157" viewBox="0 0 114 157">
  <defs>
    <style>
      .cls-1 {
        fill: #fff;
        fill-rule: evenodd;
      }

      .cls-2 {
        fill: #1a70c5;
      }
    </style>
  </defs>
  <path class="cls-1" d="M579.128,440H494V596.99H608V470.522Zm1.263,7.8,20.235,21.392H580.391V447.8ZM498.453,592.568V444.422h77.485v29.187h27.609V592.568H498.453Z" transform="translate(-494 -440)"/>
  <g>
    <circle class="cls-2" cx="57.5" cy="104.5" r="33.5"/>
    <path class="cls-1" d="M539.344,549.639l11.234,13.92a1.162,1.162,0,0,0,1.824,0l11.234-13.92a1.35,1.35,0,0,0-.911-2.271h-4.714V526.317a1.323,1.323,0,0,0-1.29-1.33H546.259a1.323,1.323,0,0,0-1.29,1.33v21.051h-4.714A1.35,1.35,0,0,0,539.344,549.639Z" transform="translate(-494 -440)"/>
  </g>
</svg>
