<svg xmlns="http://www.w3.org/2000/svg" width="23" height="23" viewBox="0 0 23 23">
  <defs>
    <style>
      .cls-1 {
        fill: #8296a6;
        fill-rule: evenodd;
      }
    </style>
  </defs>
  <path id="country-back.svg" class="cls-1" d="M402,2464v-23h23v23H402Zm11.682-6a1.3,1.3,0,1,0-1.311-1.3A1.3,1.3,0,0,0,413.682,2458Zm3.893-10.35a3.172,3.172,0,0,0-1.481-1.22,5.923,5.923,0,0,0-2.28-.43,4.593,4.593,0,0,0-1.554.3,3.8,3.8,0,0,0-1.835,1.4,2.3,2.3,0,0,0-.424,1.29,0.937,0.937,0,0,0,.283.73,1.035,1.035,0,0,0,.528.25,1.066,1.066,0,0,0,1.172-.44c0.16-.25.285-0.53,0.424-0.8a1.486,1.486,0,0,1,.86-0.78,2.218,2.218,0,0,1,1.085-.06,1.719,1.719,0,0,1,.659.26,1.4,1.4,0,0,1,.324,1.77,3.7,3.7,0,0,1-.868.89,9.93,9.93,0,0,0-1.277,1.09,1.9,1.9,0,0,0-.546,1.29,1.038,1.038,0,0,0,1.191,1.11,0.86,0.86,0,0,0,.824-0.56c0.064-.15.128-0.3,0.194-0.46a1.369,1.369,0,0,1,.389-0.55c0.259-.21.518-0.41,0.784-0.6a9.021,9.021,0,0,0,1.037-.83,2.953,2.953,0,0,0,.849-1.36A2.9,2.9,0,0,0,417.575,2447.65Z" transform="translate(-402 -2441)"/>
</svg>
