<?xml version="1.0" encoding="utf-8"?>
<!-- Generator: Adobe Illustrator 19.2.1, SVG Export Plug-In . SVG Version: 6.00 Build 0)  -->
<svg version="1.1" id="Layer_1" xmlns="http://www.w3.org/2000/svg" xmlns:xlink="http://www.w3.org/1999/xlink" x="0px" y="0px"
	 viewBox="0 0 40.3 38" style="enable-background:new 0 0 40.3 38;" xml:space="preserve">
<style type="text/css">
	.st0{fill:url(#half-star.svg_2_);}
</style>
<linearGradient id="half-star.svg_2_" gradientUnits="userSpaceOnUse" x1="20.167" y1="1.818989e-012" x2="20.167" y2="38.1">
	<stop  offset="0" style="stop-color:#FCDA55"/>
	<stop  offset="1" style="stop-color:#FAAC42"/>
</linearGradient>
<path id="half-star.svg_1_" class="st0" d="M20.2,1L20.2,1c0.3,0,0.6,0.1,0.9,0.2c0.3,0.2,0.5,0.4,0.6,0.7c1,1.9,1.9,3.8,2.8,5.7
	c0.6,1.3,1.2,2.6,1.9,3.9l0.2,0.5l0.5,0.1c1.5,0.2,3.1,0.4,4.6,0.6c2.1,0.2,4.2,0.5,6.3,0.8c0.4,0.1,0.8,0.3,1.1,0.6
	s0.4,0.8,0.3,1.2c0,0.3-0.2,0.6-0.4,0.8c-1.6,1.6-3.3,3.1-5,4.6c-1,0.9-2.1,1.9-3.1,2.8L30.5,24l0.1,0.5c0.3,1.6,0.6,3.2,0.9,4.7
	c0.4,1.9,0.8,3.9,1.1,5.8c0.2,0.9-0.4,1.8-1.3,1.9c-0.1,0-0.2,0-0.3,0c-0.3,0-0.5-0.1-0.7-0.2c-1.9-1-3.8-2-5.6-3
	c-1.3-0.7-2.7-1.5-4-2.2l-0.5-0.2 M20.2,0c-0.9,0-1.8,0.5-2.3,1.3c-1.7,3.2-3.2,6.6-4.8,9.9C10,11.6,6.9,12,3.8,12.3
	c-1.1,0.2-2.3,0.1-3.1,1l0,0c-1,1.1-0.9,2.7,0.2,3.7c2.6,2.5,5.3,4.9,7.9,7.3c-0.6,3.1-1.2,6.1-1.8,9.2c-0.1,1-0.5,2,0,2.9
	c0,0.1,0.1,0.2,0.1,0.3C7.6,37.5,8.5,38,9.4,38c0.5,0,1-0.1,1.5-0.4c3.1-1.6,6.2-3.4,9.3-5c3.2,1.7,6.4,3.5,9.6,5.2
	c0.4,0.2,0.8,0.3,1.2,0.3c0.1,0,0.3,0,0.4,0c1.4-0.2,2.4-1.6,2.2-3.1c-0.6-3.5-1.4-7-2-10.5c2.7-2.5,5.5-4.9,8.1-7.5
	c0.3-0.4,0.5-0.8,0.6-1.3c0.2-1.4-0.8-2.8-2.2-3c-3.6-0.5-7.2-0.9-10.8-1.4c-1.6-3.2-3-6.5-4.6-9.7c-0.2-0.5-0.6-0.8-1-1.1
	C21.1,0.1,20.6,0,20.2,0L20.2,0z"/>
</svg>
