<svg id="logo.svg" xmlns="http://www.w3.org/2000/svg" width="186" height="38" viewBox="0 0 186 38">
  <defs>
    <style>
      .cls-1 {
        fill: #46b846;
      }

      .cls-1, .cls-2 {
        fill-rule: evenodd;
      }

      .cls-2 {
        fill: #354c5e;
      }
    </style>
  </defs>
  <path id="PrepAway" class="cls-1" d="M239,42V71.542h5.961V61.835h5.312a10.263,10.263,0,0,0,7.343-2.87,9.821,9.821,0,0,0,0-14.1A10.262,10.262,0,0,0,250.273,42H239Zm5.961,14.39V47.445h5.312a4.474,4.474,0,0,1,0,8.947h-5.312Zm23.191-5.951H262.58v21.1h5.572V61.456a4.8,4.8,0,0,1,1.987-4.347,6.609,6.609,0,0,1,4.578-1.013V50.019c-2.937,0-5.529,1.35-6.565,4.051V50.441Zm28.892,12.787a13.885,13.885,0,0,0,.216-2.237,10.951,10.951,0,0,0-3.11-7.934,10.3,10.3,0,0,0-7.818-3.207,11.032,11.032,0,0,0-8.206,3.207,11.44,11.44,0,0,0,.043,15.91,11.746,11.746,0,0,0,8.6,3.165c4.147,0,7.3-1.519,9.416-4.515l-4.492-2.532a5.791,5.791,0,0,1-4.837,2.11c-3.326,0-5.356-1.308-6.091-3.967h16.284Zm-16.37-4.22a5.363,5.363,0,0,1,5.658-4.262,5.194,5.194,0,0,1,5.356,4.262H280.674Zm30.759-9.158a8.4,8.4,0,0,0-7,3.081v-2.49h-5.572V79.982h5.572V69.052a8.4,8.4,0,0,0,7,3.081,9.852,9.852,0,0,0,7.43-3.207,11.621,11.621,0,0,0,0-15.825A9.892,9.892,0,0,0,311.433,49.85ZM306.12,65.3a5.881,5.881,0,0,1-1.684-4.3,6.046,6.046,0,0,1,10.237-4.262,5.592,5.592,0,0,1,1.728,4.262,5.75,5.75,0,0,1-1.728,4.3A6.378,6.378,0,0,1,306.12,65.3Z" transform="translate(-239 -42)"/>
  <path id="PrepAway-2" data-name="PrepAway" class="cls-2" d="M350.38,71.542L339.755,42h-7.386L321.786,71.542h6.436l1.814-5.318h12.051l1.814,5.318h6.479Zm-14.3-22.831L340.23,60.78h-8.293Zm33.658,14.728-3.93-13h-5.27L356.611,63.4l-3.672-12.956h-5.917l6.867,21.1H359.2l3.974-12.787,3.974,12.787h5.313l6.867-21.1h-5.917Zm26.292-10.508a8.542,8.542,0,0,0-7.04-3.081,9.959,9.959,0,0,0-7.43,3.249,11.743,11.743,0,0,0,0,15.825,9.918,9.918,0,0,0,7.43,3.207,8.541,8.541,0,0,0,7.04-3.081v2.49h5.572v-21.1h-5.572v2.49ZM385.753,65.3a5.881,5.881,0,0,1-1.684-4.3,6.046,6.046,0,0,1,10.236-4.262,5.588,5.588,0,0,1,1.728,4.262,5.746,5.746,0,0,1-1.728,4.3A6.377,6.377,0,0,1,385.753,65.3Zm28.494-.675-5.615-14.18h-6.09L411.4,70.866c-1.037,2.87-2.678,4.094-5.659,4.051v5.064c5.529,0.3,9.157-2.363,11.4-8.44L425,50.441h-5.961Z" transform="translate(-239 -42)"/>
</svg>
