<svg xmlns="http://www.w3.org/2000/svg" width="4.781" height="7.16" viewBox="0 0 4.781 7.16">
  <defs>
    <style>
      .cls-1 {
        fill: #fff;
        fill-rule: evenodd;
      }
    </style>
  </defs>
  <path id="question.svg" class="cls-1" d="M112.366,1826.99a3.346,3.346,0,0,1,1.361.26,1.835,1.835,0,0,1,.885.73,1.73,1.73,0,0,1,.2,1.37,1.757,1.757,0,0,1-.507.81,5.423,5.423,0,0,1-.62.5c-0.158.11-.314,0.23-0.468,0.35a0.815,0.815,0,0,0-.232.34c-0.04.09-.078,0.18-0.116,0.27a0.532,0.532,0,0,1-.492.34,0.642,0.642,0,0,1-.407-0.08,0.659,0.659,0,0,1-.3-0.59,1.13,1.13,0,0,1,.326-0.77,4.776,4.776,0,0,1,.763-0.65,2.127,2.127,0,0,0,.518-0.54,0.827,0.827,0,0,0-.193-1.05,0.945,0.945,0,0,0-.394-0.16,1.3,1.3,0,0,0-.648.04,0.853,0.853,0,0,0-.513.47c-0.084.16-.158,0.32-0.254,0.47a0.633,0.633,0,0,1-.7.27,0.562,0.562,0,0,1-.315-0.16,0.544,0.544,0,0,1-.169-0.43,1.391,1.391,0,0,1,.253-0.78,2.3,2.3,0,0,1,1.1-.83A2.941,2.941,0,0,1,112.366,1826.99Zm-0.079,5.63a0.774,0.774,0,0,1,.783.77,0.784,0.784,0,0,1-1.567,0A0.774,0.774,0,0,1,112.287,1832.62Z" transform="translate(-110.094 -1827)"/>
</svg>
