<svg xmlns="http://www.w3.org/2000/svg" width="9" height="5" viewBox="0 0 9 5">
  <defs>
    <style>
      .cls-1 {
        fill: #aab4be;
        fill-rule: evenodd;
      }
    </style>
  </defs>
  <path id="select-arrow.svg" class="cls-1" d="M4.508,5a0.8,0.8,0,0,1-.591-0.27Q2.97,3.716,2.018,2.706L0.174,0.742,0.119,0.683A0.358,0.358,0,0,1,.036.26,0.452,0.452,0,0,1,.443,0C0.47,0,.5,0,0.527,0H8.485a0.783,0.783,0,0,1,.154.01,0.4,0.4,0,0,1,.237.684q-1.268,1.351-2.537,2.7c-0.421.448-.844,0.9-1.263,1.346A0.785,0.785,0,0,1,4.508,5Z"/>
</svg>
