<svg id="logo.svg" xmlns="http://www.w3.org/2000/svg" xmlns:xlink="http://www.w3.org/1999/xlink" width="191" viewBox="0 0 495.969 169">
  <defs>
    <style>
      .cls-1 {
        fill: #0955c8;
        fill-opacity: 0.09;
        stroke: #e1eaf7;
        stroke-linejoin: round;
        stroke-width: 1px;
      }

      .cls-2, .cls-3, .cls-4 {
        fill-rule: evenodd;
      }

      .cls-2 {
        fill: url(#linear-gradient);
      }

      .cls-3 {
        fill: url(#linear-gradient-2);
      }

      .cls-4 {
        fill: #0451c6;
      }
    </style>
    <linearGradient id="linear-gradient" x1="37" y1="35.16" x2="126" y2="109.84" gradientUnits="userSpaceOnUse">
      <stop offset="0" stop-color="#0f5acb"/>
      <stop offset="1" stop-color="#0552c7"/>
    </linearGradient>
    <linearGradient id="linear-gradient-2" y1="73.051" x2="69" y2="130.949" gradientUnits="userSpaceOnUse">
      <stop offset="0" stop-color="#1f8fe8"/>
      <stop offset="0.25" stop-color="#2fa2ec"/>
      <stop offset="0.5" stop-color="#3db2f0"/>
      <stop offset="0.772" stop-color="#4ac1f3"/>
      <stop offset="1" stop-color="#61dbf9"/>
    </linearGradient>
  </defs>
  <rect class="cls-1" x="3.813" y="72.813" width="93.75" height="88.375"/>
  <path id="Rectangle_792_copy" data-name="Rectangle 792 copy" class="cls-2" d="M87,0h39L70,145H37Z"/>
  <path class="cls-3" d="M0.009,59h36.75L69,145H32.25Z"/>
  <path id="Vumingo" class="cls-4" d="M148.274,85.79v29.088a14.613,14.613,0,0,1-2.974,9.533,10.24,10.24,0,0,1-8.15,3.759,9,9,0,0,1-6.994-2.833q-2.589-2.832-2.588-7.844V85.79H107.963v37.259q0,10.242,5.782,16.4T129.22,145.6q12.995-.22,19.054-10.459v9.587h19.6V85.79h-19.6Zm102.831,0a22.582,22.582,0,0,0-12.37,3.328,21.166,21.166,0,0,0-8.05,9.874,18.983,18.983,0,0,0-7.238-9.71,21.026,21.026,0,0,0-12.209-3.492,22.632,22.632,0,0,0-11.182,2.674,20.752,20.752,0,0,0-7.834,7.8V86.55H173.1v59.027h19.123V116.445a14.481,14.481,0,0,1,3.026-9.547,10.288,10.288,0,0,1,8.1-3.764,8.961,8.961,0,0,1,7.022,2.892,11.418,11.418,0,0,1,2.594,7.91v31.641H232.2V116.445a14.656,14.656,0,0,1,2.971-9.547,10.13,10.13,0,0,1,8.049-3.764,8.964,8.964,0,0,1,7.023,2.892,11.417,11.417,0,0,1,2.593,7.91v31.641h19.231V108.371q0-10.363-5.726-16.475t-15.234-6.11h0Zm26.789,59.791h17.161v-60.5H277.894v60.5Zm8.435-88.348a8.279,8.279,0,0,0-6.544,2.963,11.275,11.275,0,0,0-2.569,7.661,11.322,11.322,0,0,0,2.569,7.6,8.6,8.6,0,0,0,13.088,0,11.327,11.327,0,0,0,2.57-7.6,11.281,11.281,0,0,0-2.57-7.661,8.282,8.282,0,0,0-6.544-2.963h0ZM339.37,85.786a23.8,23.8,0,0,0-11.33,2.619,20.909,20.909,0,0,0-8.077,7.746v-9.6h-19.3v59.027h19.3v-31.2A12.9,12.9,0,0,1,323.6,106.3a11.1,11.1,0,0,1,7.861-3.165,9.487,9.487,0,0,1,7.264,2.892,11.111,11.111,0,0,1,2.71,7.91v31.641h19.19V108.371q0-10.363-5.8-16.475t-15.45-6.11h0Zm67.45,0.692v7.341a19,19,0,0,0-7.2-5.951,22.153,22.153,0,0,0-9.647-2.058,22.78,22.78,0,0,0-12.579,3.56,23.444,23.444,0,0,0-8.581,10.009,34.623,34.623,0,0,0-3.038,14.9,34.956,34.956,0,0,0,3.145,15.182,24.176,24.176,0,0,0,8.741,10.232,22.953,22.953,0,0,0,12.739,3.615q10.658,0,16.416-7.9v6.451a10.435,10.435,0,0,1-3.731,8.453q-3.732,3.113-10.127,3.114a28.652,28.652,0,0,1-9.274-1.557,33.369,33.369,0,0,1-8.528-4.337l-6.61,13.679a43.406,43.406,0,0,0,11.833,5.673A46.3,46.3,0,0,0,394.348,169a37.5,37.5,0,0,0,16.363-3.392,25.9,25.9,0,0,0,11.033-9.677,26.931,26.931,0,0,0,3.944-14.625V86.479H406.82ZM395.2,128.854a10.514,10.514,0,0,1-8.475-3.893,15.251,15.251,0,0,1-3.251-10.121,15.479,15.479,0,0,1,3.251-10.177,11.062,11.062,0,0,1,16.9-.055q3.2,3.894,3.2,10.232a15.427,15.427,0,0,1-3.2,10.121,10.364,10.364,0,0,1-8.421,3.893h0Zm68.174-43.043a37.315,37.315,0,0,0-17.068,3.732,27.206,27.206,0,0,0-11.4,10.494,30.007,30.007,0,0,0-4.019,15.632,30.213,30.213,0,0,0,4.019,15.741,27.2,27.2,0,0,0,11.4,10.494,40.9,40.9,0,0,0,34.136,0A27.582,27.582,0,0,0,491.9,131.41a29.911,29.911,0,0,0,4.074-15.741,29.708,29.708,0,0,0-4.074-15.632,27.591,27.591,0,0,0-11.452-10.494,37.326,37.326,0,0,0-17.068-3.732h0Zm0,15.578a11.9,11.9,0,0,1,9.3,4q3.578,4,3.579,10.494,0,6.6-3.523,10.6a11.858,11.858,0,0,1-9.36,4,11.728,11.728,0,0,1-9.25-4q-3.525-4-3.523-10.6,0-6.492,3.523-10.494a11.735,11.735,0,0,1,9.25-4h0Z"/>
</svg>
